<?xml version="1.0" encoding="UTF-8"?>
<!-- Generated by Pixelmator Pro 3.4.3 -->
<svg width="32" height="32" viewBox="0 0 32 32" xmlns="http://www.w3.org/2000/svg">
    <path id="Path-copy" fill="#002345" stroke="none" d="M 19.284285 21.622856 C 19.284285 18.32 19.295715 15.157145 19.278574 11.994284 C 19.271427 10.761427 19.344286 9.501431 19.121429 8.301426 C 18.75 6.308573 16.884287 5.188572 14.674286 5.432858 C 12.897142 5.628571 11.431427 7.154284 11.405714 9.005716 C 11.344286 13.647142 11.318573 18.288572 11.334285 22.93 C 11.341431 24.734285 12.67 26.091429 14.350001 26.762859 C 15.575714 27.251427 16.638571 28.154285 17.76 28.894285 C 18.34 29.277145 18.890001 29.705717 19.45286 30.114286 C 19.645712 30.254288 19.834286 30.40143 20.08 30.587143 C 19.097141 31.451431 17.964285 31.627142 16.857143 31.818571 C 11.987144 32.66 7.357143 29.524286 6.342856 24.694286 C 6.202859 24.024284 6.152858 23.325716 6.149998 22.639999 C 6.134286 18.14143 6.132856 13.641428 6.145713 9.142857 C 6.159999 4.354288 10.157144 0.338572 14.955714 0.269999 C 19.479998 0.205715 23.09 2.911428 24.201429 7.235714 C 24.352858 7.825714 24.421431 8.454285 24.424286 9.064287 C 24.444284 14.087141 24.448574 19.110001 24.428572 24.132858 C 24.425716 24.68 24.568573 25.017143 25.061428 25.27 C 25.279999 25.381428 25.544285 25.672859 25.548571 25.888573 C 25.587141 27.715714 25.569998 29.544287 25.569998 31.464289 C 25.341431 31.384289 25.182858 31.35857 25.058573 31.280001 C 21.241428 28.865717 17.431427 26.44286 13.611428 24.035717 C 13.182857 23.765715 12.987144 23.451431 12.997145 22.934284 C 13.024287 21.507143 13 20.078571 13.008571 18.650002 C 13.012856 17.98143 13.188573 17.889999 13.767142 18.242857 C 15.568573 19.342857 17.365713 20.44857 19.282858 21.625717 Z"/>
</svg>
